<?xml version="1.0" encoding="UTF-8"?>
<svg id="Ebene_2" xmlns="http://www.w3.org/2000/svg" viewBox="0 0 1008.69 337.73">
  <defs>
    <style>
      .cls-1 {
        fill: #2a284b;
      }

      .cls-2 {
        fill: #e1a145;
      }

      .cls-2, .cls-3 {
        stroke: #2a284b;
        stroke-linecap: round;
        stroke-linejoin: round;
        stroke-width: 2px;
      }

      .cls-3 {
        fill: #82afa2;
      }
    </style>
  </defs>
  <g id="Ebene_1-2" data-name="Ebene_1">
    <g>
      <g>
        <path class="cls-1" d="M6.82,69.54c1.72,5.31,2.58,7.96,4.3,13.27,5.73-1.86,8.59-2.77,14.34-4.56-1.66-5.33-2.49-7.99-4.16-13.31,2.5-.78,3.76-1.17,6.26-1.94,3.41,11.09,6.81,22.19,10.22,33.28-2.44.75-3.67,1.13-6.11,1.89-1.83-5.86-2.74-8.79-4.57-14.64-5.72,1.79-8.58,2.7-14.28,4.54,1.89,5.84,2.84,8.76,4.73,14.59-2.43.79-3.65,1.19-6.08,1.99-3.63-11.02-7.27-22.04-10.9-33.07,2.49-.82,3.74-1.23,6.24-2.04Z"/>
        <path class="cls-1" d="M64.15,75.16c2.51,8.9-2.66,14.65-8.84,16.46-6.88,2.01-13.57-1.08-15.9-8.79-2.39-7.91,1.46-14.38,8.93-16.56,7.37-2.15,13.74,1.54,15.82,8.89ZM45.74,80.76c1.38,4.65,4.73,7.48,8.48,6.39,3.5-1.02,4.97-5.15,3.57-10.02-1.08-3.77-4.05-7.6-8.3-6.36-4.41,1.29-4.94,5.98-3.74,9.99Z"/>
        <path class="cls-1" d="M69.31,60.9c2.25,4.12,3.37,6.18,5.61,10.3,1.26,2.44,2.54,4.93,3.71,7.45.04-.01.06-.02.1-.03-.21-2.78-.14-5.69-.1-8.37.08-4.77.13-7.16.23-11.94,2.04-.55,3.07-.82,5.11-1.36,2.38,3.99,3.57,5.98,5.94,9.98,1.5,2.65,2.85,5.13,4.09,7.64.04-.01.06-.02.1-.03-.28-2.75-.41-5.55-.49-8.57-.02-4.6-.02-6.91-.02-11.51,2.48-.63,3.72-.95,6.2-1.57-.69,10.55-1.01,15.82-1.58,26.35-2.29.59-3.44.89-5.73,1.49-2.2-3.65-3.31-5.48-5.52-9.12-1.43-2.35-2.6-4.5-3.94-7.29-.04.01-.06.02-.1.03.29,3.13.27,5.7.2,8.29-.2,4.29-.29,6.43-.47,10.72-2.31.62-3.46.94-5.76,1.57-5.55-8.91-8.35-13.36-14-22.22,2.57-.72,3.85-1.08,6.42-1.78Z"/>
        <path class="cls-1" d="M118.26,48.39c2.1,4.2,3.14,6.3,5.23,10.5,1.17,2.48,2.36,5.02,3.43,7.58.04,0,.06-.01.1-.02-.11-2.78.07-5.69.2-8.37.25-4.77.39-7.15.66-11.92,2.06-.47,3.09-.7,5.15-1.17,2.24,4.07,3.35,6.11,5.56,10.19,1.41,2.7,2.66,5.23,3.81,7.78.04,0,.06-.01.1-.02-.18-2.76-.21-5.56-.17-8.58.15-4.6.23-6.9.4-11.51,2.5-.54,3.75-.81,6.25-1.34-1.07,10.51-1.58,15.77-2.54,26.28-2.31.5-3.47.76-5.77,1.27-2.06-3.73-3.1-5.6-5.18-9.32-1.34-2.4-2.43-4.59-3.67-7.43-.04,0-.06.01-.1.02.17,3.14.06,5.71-.1,8.29-.35,4.28-.52,6.42-.86,10.69-2.33.54-3.49.81-5.81,1.35-5.21-9.11-7.85-13.65-13.17-22.72,2.59-.62,3.88-.93,6.48-1.55Z"/>
        <path class="cls-1" d="M159.79,53.92c1.07,4.42,4.98,5.62,8.96,4.82,2.91-.58,4.92-1.4,6.67-2.48.7,1.65,1.05,2.48,1.76,4.13-1.97,1.28-4.79,2.51-8.35,3.23-8.03,1.61-13.78-2.28-15.36-9.81-1.44-6.82,1.45-14.15,9.53-15.78,8.18-1.65,12.16,4.45,13.21,9.88.23,1.17.3,2.1.3,2.68-6.69,1.29-10.03,1.96-16.71,3.33ZM169.9,47.35c-.4-2.29-2.17-5.84-6.41-4.99-3.92.79-4.86,4.63-4.59,7.21,4.4-.91,6.6-1.35,11-2.22Z"/>
        <path class="cls-1" d="M208.34,55.78c-.35-1.07-.53-1.61-.88-2.68-.06.01-.09.02-.15.03-1.21,2.2-3.57,4.02-6.79,4.58-5,.88-8.46-2.21-9.15-5.97-1.14-6.25,3.91-10.45,13.23-11.98-.03-.16-.04-.24-.07-.41-.28-1.63-1.41-4.22-5.88-3.44-2.49.43-4.95,1.66-6.46,3.03-.79-1.54-1.18-2.31-1.98-3.84,1.67-1.46,4.75-3.11,8.76-3.81,8.12-1.41,11.31,3.27,12.2,8.67.59,3.59.89,5.38,1.49,8.97.37,2.24.84,4.42,1.35,5.9-2.27.38-3.41.57-5.68.95ZM205.46,43.8c-4.5.66-8.61,2.39-7.94,6.15.43,2.44,2.22,3.28,4.22,2.93,2.51-.44,4.08-2.38,4.34-4.26.08-.48.04-1-.03-1.41-.23-1.36-.35-2.05-.58-3.41Z"/>
        <path class="cls-1" d="M214.49,17.59c2.61-.42,3.91-.63,6.52-1.03,1.88,12.08,3.76,24.16,5.65,36.24-2.54.4-3.81.6-6.35,1-1.94-12.07-3.88-24.14-5.82-36.21Z"/>
        <path class="cls-1" d="M228.01,15.48c2.61-.39,3.92-.59,6.53-.97,1.76,12.1,3.53,24.19,5.29,36.29-2.54.37-3.82.56-6.36.94-1.82-12.09-3.64-24.18-5.46-36.27Z"/>
        <path class="cls-1" d="M257.09,48.41c-.12-1.7-.38-4.48-.72-7.04-1.3-9.78-2.59-19.56-3.89-29.34,2.6-.34,3.9-.51,6.5-.84.76,5.94,1.14,8.92,1.9,14.86.04,0,.06,0,.1-.01,1.26-2.61,3.84-4.55,7.67-5.02,6.24-.76,11.26,3.85,12.1,11.42.99,8.95-4.19,14.1-9.85,14.79-3.24.4-6.27-.47-8.47-3.31-.04,0-.06,0-.1.01.07,1.51.1,2.27.17,3.78-2.16.28-3.24.42-5.4.71ZM262.3,37.26c.07.51.18,1.02.34,1.47.99,2.42,3.45,4.04,6.19,3.7,3.98-.49,6.03-3.95,5.43-8.98-.52-4.41-3.09-7.75-7.38-7.23-2.61.32-4.73,2.47-5.11,5.33-.05.47-.08,1.05,0,1.67.21,1.62.31,2.43.52,4.05Z"/>
        <path class="cls-1" d="M290.75,33.51c.64,4.5,4.41,6.08,8.45,5.67,2.95-.3,5.03-.91,6.88-1.82.54,1.71.81,2.57,1.35,4.28-2.09,1.08-5.02,2.04-8.63,2.4-8.15.82-13.49-3.61-14.34-11.26-.77-6.93,2.81-13.95,11.02-14.78,8.31-.84,11.67,5.61,12.19,11.11.11,1.18.09,2.12.04,2.69-6.79.64-10.18.98-16.96,1.7ZM301.45,27.95c-.17-2.32-1.6-6.03-5.9-5.59-3.98.41-5.28,4.13-5.27,6.73,4.46-.47,6.7-.7,11.17-1.14Z"/>
        <path class="cls-1" d="M332.49,39.77c-1.3.72-3.89,1.59-7.04,1.85-7.86.64-13.42-3.87-14.13-11.64-.68-7.51,4.05-13.87,13.06-14.6,2.37-.19,4.84.14,6.36.69-.32,1.93-.48,2.9-.8,4.83-1.09-.38-2.65-.78-4.96-.6-4.94.4-7.54,4.23-7.12,8.78.47,5.11,4.07,7.79,8.43,7.44,2.23-.18,3.75-.76,4.96-1.37.5,1.85.74,2.77,1.24,4.62Z"/>
        <path class="cls-1" d="M351.44,39.24c-.23-1.1-.35-1.66-.59-2.76-.06,0-.09,0-.16,0-1.44,2.06-3.99,3.61-7.25,3.84-5.07.34-8.19-3.1-8.47-6.91-.47-6.34,5.01-9.97,14.45-10.51-.01-.17-.02-.25-.03-.41-.1-1.65-.96-4.35-5.48-4.05-2.53.17-5.1,1.12-6.76,2.33-.62-1.61-.93-2.42-1.56-4.03,1.81-1.27,5.06-2.59,9.13-2.86,8.23-.54,10.91,4.45,11.22,9.92.21,3.63.31,5.45.52,9.08.13,2.27.36,4.48.71,6.01-2.3.13-3.45.2-5.75.34ZM349.85,27.02c-4.55.18-8.82,1.46-8.56,5.27.17,2.47,1.86,3.5,3.88,3.36,2.55-.17,4.31-1.94,4.77-3.78.13-.47.15-.99.12-1.41-.09-1.38-.13-2.07-.22-3.45Z"/>
        <path class="cls-1" d="M362.64,20.91c-.15-2.89-.33-5.31-.61-7.47,2.24-.12,3.36-.18,5.6-.29.18,1.48.27,2.22.45,3.7.06,0,.09,0,.16,0,1.17-2.02,3.39-4.46,7.72-4.65,3.38-.14,6.1,1.61,7.31,4.36.04,0,.06,0,.11,0,.84-1.43,1.93-2.49,3.05-3.26,1.38-.95,3.02-1.6,5.13-1.67,4.29-.13,8.7,2.6,8.9,10.65.15,5.93.22,8.89.37,14.82-2.49.06-3.74.1-6.23.17-.17-5.56-.25-8.33-.41-13.89-.12-4.18-1.68-6.62-4.79-6.52-2.21.07-3.79,1.68-4.41,3.51-.14.63-.26,1.41-.24,2.13.22,6.03.33,9.04.55,15.07-2.49.09-3.74.14-6.23.24-.24-5.82-.36-8.73-.6-14.55-.15-3.51-1.67-5.93-4.67-5.8-2.42.11-3.97,2.04-4.46,3.83-.23.63-.3,1.36-.27,2.08.29,5.94.43,8.92.72,14.86-2.49.12-3.73.18-6.22.31-.37-7.06-.56-10.58-.93-17.64Z"/>
        <path class="cls-1" d="M411.93,26.06c.23,4.54,3.86,6.44,7.93,6.4,2.97-.03,5.11-.46,7.03-1.2.39,1.75.58,2.63.96,4.39-2.18.89-5.19,1.58-8.83,1.62-8.21.1-13.15-4.79-13.31-12.49-.15-6.97,4.05-13.64,12.31-13.74,8.37-.1,11.16,6.62,11.18,12.15,0,1.19-.1,2.12-.2,2.69-6.84.03-10.25.07-17.08.18ZM423.1,21.48c.03-2.32-1.06-6.14-5.39-6.09-4.01.05-5.64,3.65-5.86,6.23,4.5-.08,6.75-.1,11.25-.14Z"/>
      </g>
      <text/>
      <g>
        <path class="cls-3" d="M41.36,179.57c-4.63-18.07-15.46-63.5,11.99-70.52,27.19-6.96,37.5,40.52,41.43,57.42,3.56,15.33,15.96,63.17-9.52,70.05-27.71,7.48-39.53-39.89-43.9-56.95Z"/>
        <path class="cls-3" d="M108.02,162.73c-4-17.8-11.91-65.93,15.59-70.5,29.48-4.9,41.1,55.95,62.88,51.76,21.8-4.19,10.42-65.63,39.16-71.39,26.84-5.38,37.6,41.11,40.59,59.69,2.36,14.68,10.5,64.29-13.47,68.77-18.99,3.55-19.48-29.22-30.85-26.96-11.67,2.32-8.52,33.89-22.6,36.6-14.09,2.71-22.91-27.78-34.57-25.6-11.32,2.11-.11,32.67-18.67,36.48-23.78,4.89-34.67-43.8-38.05-58.86Z"/>
        <path class="cls-3" d="M279.8,130.19c-2.69-18.02-7.12-66.62,20.61-69.18,29.73-2.74,36.9,58.79,58.9,56.19,22.02-2.6,15.12-64.7,44.18-68.37,27.15-3.42,34.51,43.74,36.15,62.47,1.29,14.8,5.82,64.89-18.4,67.61-19.19,2.16-17.31-30.55-28.8-29.12-11.8,1.47-10.94,33.18-25.17,34.86-14.24,1.68-20.83-29.37-32.6-28.04-11.43,1.29-2.46,32.57-21.23,35.03-24.04,3.15-31.38-46.22-33.65-61.46Z"/>
        <path class="cls-3" d="M531.24,165.53c-11.19.64-21.42,7.2-32.78,8.25-33.33,3.1-43.76-39.67-45.18-64.03-1.1-18.83.25-63.13,26.13-65.98,42.69-4.7,8.1,91.14,42.82,89.2,32.97-1.84-4.41-90.62,25.88-92.77,28.25-2.01,30.52,56.11,30.87,74.32.29,15.12-.17,56.44-22.26,57.97-9.23.64-11.58-7.75-25.47-6.95Z"/>
        <path class="cls-3" d="M592.42,104.62c-.38-16.46-2.21-66.23,23.77-65.86,28.41.4,39.29,55.88,58.04,54.41,14.17-1.11.19-54.46,25.86-53.88,25.32.57,22.04,52.95,21.51,68.56-.65,19.41-2.27,63.9-29.9,62.47-22.33-1.16-30.61-39.12-50.09-39.05-16.3.06-4.9,38.62-24.68,38.67-23.53.06-24.15-50.32-24.5-65.32Z"/>
        <path class="cls-3" d="M735.44,105.22c.74-18.64,3.37-65.27,31.68-64.14,28.05,1.12,24.34,49.56,23.26,66.88-.98,15.71-2.81,65.09-29.2,64.39-28.69-.76-26.44-49.54-25.74-67.14Z"/>
      </g>
      <g>
        <path class="cls-2" d="M359.21,201.43c0-37.15,16.58-64.34,62.79-64.34,41.79,0,53.73,15.7,57.49,31.4,3.1,15.7-7.74,30.95-27.2,25.21-18.13-5.31-12.38-32.94-36.26-32.94-18.13,0-24.1,9.73-24.1,25.87,0,17.69,9.51,24.54,24.1,25.87,12.16,1.11,21.45-.22,32.5-2.21,25.65-4.64,29.63,3.98,29.63,19.46,0,17.25-16.8,36.7-56.16,36.7-45.33,0-62.79-25.43-62.79-65Z"/>
        <path class="cls-2" d="M493.42,202.32c0-45.99,20.34-65.22,61.91-65.22,47.32,0,62.79,21.23,62.79,65.22,0,53.51-27.86,65.45-62.79,65.45s-61.91-11.94-61.91-65.45ZM591.58,191.04c0-19.24-6.19-28.74-27.42-28.74-18.79,0-27.64,8.62-27.64,28.74,0,23.66,11.5,28.96,27.64,28.96,15.26,0,27.42-5.31,27.42-28.96Z"/>
        <path class="cls-2" d="M631.38,205.19c0-49.53,15.7-67.88,57.49-67.88,39.36,0,61.69,15.92,61.69,50.41,0,24.54-9.95,32.28-9.95,39.36,0,7.52,16.8,40.24-7.52,40.24-21.67,0-36.7-30.29-51.07-30.29s-10.17,30.73-26.31,30.73c-13.93,0-24.32-20.56-24.32-62.57ZM708.32,184.19c0-15.26-7.3-22.99-24.76-22.99-15.92,0-25.21,7.08-25.21,22.99,0,18.79,11.72,22.99,25.21,22.99,12.6,0,24.76-4.2,24.76-22.99Z"/>
        <path class="cls-2" d="M763.82,202.98c0-42.89,7.3-65,23.66-65,21,0,40.68,53.95,55.27,53.95s.88-53.95,23.66-53.95c16.8,0,22.33,28.74,22.33,67.44s-5.97,62.79-27.64,62.79c-19.9,0-34.05-38.25-49.75-38.25s-5.09,38.25-24.54,38.25c-13.04,0-22.99-19.9-22.99-65.22Z"/>
        <path class="cls-2" d="M898.91,228.63c7.08-14.59,47.32,7.52,53.06-8.18,5.53-15.04-43.56-20.56-43.56-50.41,0-21,14.81-32.94,45.99-32.94,32.72,0,54.39,14.15,48.42,26.75-6.41,13.49-44.44-7.52-44.44,7.74,0,13.71,49.3,21,49.3,55.94,0,22.77-16.36,40.24-51.29,40.24-42.45,0-63.01-27.42-57.49-39.13Z"/>
      </g>
    </g>
  </g>
</svg>