<?xml version="1.0" encoding="UTF-8"?>
<svg xmlns="http://www.w3.org/2000/svg" version="1.1" viewBox="0 0 3530.7 1080">
  <defs>
    <style>
      .cls-1 {
        fill: none;
        stroke: #e1a145;
        stroke-miterlimit: 10;
        stroke-width: 10px;
      }

      .cls-2, .cls-3 {
        fill: #2a284b;
      }

      .cls-4, .cls-3 {
        display: none;
      }
    </style>
  </defs>
  <!-- Generator: Adobe Illustrator 28.7.5, SVG Export Plug-In . SVG Version: 1.2.0 Build 176)  -->
  <g>
    <g id="Ebene_1">
      <g id="Ebene_1-2" data-name="Ebene_1">
        <g id="Ebene_1-2">
          <g>
            <g>
              <path class="cls-2" d="M1015,602.7l-123.8,51-29.4-202.9c-2.4-16.6,7.8-31.6,22.5-33.2l101.9-11,28.9,196.1h-.1Z"/>
              <polygon class="cls-2" points="902.9 833.8 795.9 824.3 907.4 583.9 988.5 624.3 902.9 833.8"/>
              <polygon class="cls-2" points="1165.6 715.6 1110.5 792.1 927.7 627.1 1002.3 552.4 1165.6 715.6"/>
              <rect class="cls-2" x="874.1" y="347" width="73.3" height="101.6"/>
              <path class="cls-2" d="M1149.3,419.5l-166.9,50.3v-63.3l163.8,1.8c6.5-.5,8.9,8.4,3,11.3h0Z"/>
              <path class="cls-2" d="M945.6,335.4c-15.6,9.8,10.4-27.2,2.9-51.1-9.1-29.2-47.6-44.6-71.1-35.5-42.7,16.4-61.3,53.2-48,87.6,13.2,34.4,87,55.7,129.7,39.3,42.7-16.4,27.6-66.2-13.5-40.3h0ZM925.3,305.9c-4.4,10.6-14.5,16.5-22.6,13.1-8-3.4-11-14.7-6.6-25.2,4.4-10.6,14.5-16.5,22.6-13.1,8,3.4,11,14.7,6.6,25.2Z"/>
              <path class="cls-2" d="M1172.4,520.1l-209.9-8c-3.4-.1-5.9-3.3-5.3-6.7l12.8-65.2c.7-3.4,4.2-5.4,7.4-4.2l197.3,71.8c6.7,2.4,4.7,12.4-2.4,12.1v.2h0Z"/>
            </g>
            <g>
              <path class="cls-2" d="M420.8,602.7l-123.8,51-29.4-202.9c-2.4-16.6,7.8-31.6,22.5-33.2l101.9-11,28.9,196.1h-.1Z"/>
              <polygon class="cls-2" points="308.6 833.8 201.7 824.3 313.2 583.9 394.2 624.3 308.6 833.8"/>
              <polygon class="cls-2" points="571.3 715.6 516.3 792.1 333.5 627.1 408.1 552.4 571.3 715.6"/>
              <rect class="cls-2" x="279.9" y="347" width="73.3" height="101.6"/>
              <path class="cls-2" d="M555,419.5l-166.9,50.3v-63.3l163.8,1.8c6.5-.5,8.9,8.4,3,11.3h0Z"/>
              <path class="cls-2" d="M351.4,335.4c-15.6,9.8,10.4-27.2,2.9-51.1-9.1-29.2-47.6-44.6-71.1-35.5-42.7,16.4-61.3,53.2-48,87.6,13.2,34.4,87,55.7,129.7,39.3,42.7-16.4,27.6-66.2-13.5-40.3h0ZM331.1,305.9c-4.4,10.6-14.5,16.5-22.6,13.1-8-3.4-11-14.7-6.6-25.2,4.4-10.6,14.5-16.5,22.6-13.1,8,3.4,11,14.7,6.6,25.2Z"/>
              <path class="cls-2" d="M578.2,520.1l-209.9-8c-3.4-.1-5.9-3.3-5.3-6.7l12.8-65.2c.7-3.4,4.2-5.4,7.4-4.2l197.3,71.8c6.7,2.4,4.7,12.4-2.4,12.1v.2h.1Z"/>
            </g>
            <g>
              <path class="cls-2" d="M1609.3,602.7l-123.8,51-29.4-202.9c-2.4-16.6,7.8-31.6,22.5-33.2l101.9-11,28.9,196.1h0Z"/>
              <polygon class="cls-2" points="1497.1 833.8 1390.2 824.3 1501.7 583.9 1582.7 624.3 1497.1 833.8"/>
              <polygon class="cls-2" points="1759.8 715.6 1704.7 792.1 1521.9 627.1 1596.6 552.4 1759.8 715.6"/>
              <rect class="cls-2" x="1468.3" y="347" width="73.3" height="101.6"/>
              <path class="cls-2" d="M1743.5,419.5l-166.9,50.3v-63.3l163.8,1.8c6.5-.5,8.9,8.4,3,11.3h0Z"/>
              <path class="cls-2" d="M1539.9,335.4c-15.6,9.8,10.4-27.2,2.9-51.1-9.1-29.2-47.6-44.6-71.1-35.5-42.7,16.4-61.3,53.2-48,87.6,13.2,34.4,87,55.7,129.7,39.3,42.7-16.4,27.6-66.2-13.5-40.3ZM1519.6,305.9c-4.4,10.6-14.5,16.5-22.6,13.1-8-3.4-11-14.7-6.6-25.2,4.4-10.6,14.5-16.5,22.6-13.1,8,3.4,11,14.7,6.6,25.2Z"/>
              <path class="cls-2" d="M1766.7,520.1l-209.9-8c-3.4-.1-5.9-3.3-5.3-6.7l12.8-65.2c.7-3.4,4.2-5.4,7.4-4.2l197.3,71.8c6.7,2.4,4.7,12.4-2.4,12.1v.2h0Z"/>
            </g>
          </g>
        </g>
        <path class="cls-3" d="M1676.4,223.1c4.3-10,14.4-14.3,23.9-10.2,10,4.3,13.3,14.3,9,24.3s-13.8,14.5-23.9,10.2c-9.8-4.2-13.2-14.6-9-24.3ZM1700.5,186.2l53.5-135.4,26.8,11.5-61.3,132.1-18.9-8.1h0Z"/>
        <path class="cls-3" d="M1418.4,225.2c-11.2-9.2-14.6-23.7-7.5-32.3s30.7-.4,30.5,14.1c-.2,19.2,17.3,10.7,10.2,19.3s-21.9,8.1-33.2-1.2h0Z"/>
        <path class="cls-3" d="M968.3,612.9c-30.4,0-54.1-64-23.1-88.9,40.9-32.9-7.3-55.1,23.1-55.1"/>
        <path class="cls-3" d="M1520.9,208.9c2.9-14.3-3.7-27.6-14.6-29.8s-24,19.1-14.7,30.2c12.3,14.8-6.6,19.3,4.3,21.4,10.9,2.2,22.1-7.6,25-21.9h0Z"/>
      </g>
      <g class="cls-4">
        <circle class="cls-1" cx="910.7" cy="336.8" r="185"/>
        <line class="cls-1" x1="910.7" y1="98.8" x2="910.7" y2="196.6"/>
        <line class="cls-1" x1="774.7" y1="336.8" x2="676.9" y2="336.8"/>
        <line class="cls-1" x1="1144.6" y1="336.8" x2="1046.8" y2="336.8"/>
        <line class="cls-1" x1="910.7" y1="466" x2="910.7" y2="563.8"/>
      </g>
      <g>
        <path class="cls-2" d="M3483.2,823.1h-984c-6.6,0-12-5.4-12-12l30.2-91.1h944l33.8,91.1c0,6.6-5.4,12-12,12Z"/>
        <path class="cls-2" d="M3441.4,276.9v409.8h-904v-409.8h904M3449.4,256.9h-920c-6.6,0-12,5.4-12,12v425.8c0,6.6,5.4,12,12,12h920c6.6,0,12-5.4,12-12v-425.8c0-6.6-5.4-12-12-12h0Z"/>
        <g>
          <path class="cls-2" d="M2563.3,318h-.2l-10.2,5.5-1.5-6,12.8-6.8h6.8v58.6h-7.7v-51.2Z"/>
          <path class="cls-2" d="M2609.6,318h-.2l-10.2,5.5-1.5-6,12.8-6.8h6.8v58.6h-7.7v-51.2Z"/>
          <path class="cls-2" d="M2655.8,318h-.2l-10.2,5.5-1.5-6,12.8-6.8h6.8v58.6h-7.7v-51.2Z"/>
          <path class="cls-2" d="M2702,318h-.2l-10.2,5.5-1.5-6,12.8-6.8h6.8v58.6h-7.7v-51.2Z"/>
          <path class="cls-2" d="M2769.9,339.2c0,19.9-7.4,30.9-20.4,30.9s-19.2-10.7-19.4-30.1c0-19.6,8.5-30.5,20.4-30.5s19.4,11,19.4,29.6ZM2738.1,340.1c0,15.2,4.7,23.9,11.9,23.9s12-9.5,12-24.4-3.7-23.9-11.9-23.9-12,8.5-12,24.4Z"/>
          <path class="cls-2" d="M2816.2,339.2c0,19.9-7.4,30.9-20.4,30.9s-19.2-10.7-19.4-30.1c0-19.6,8.5-30.5,20.4-30.5s19.4,11,19.4,29.6ZM2784.4,340.1c0,15.2,4.7,23.9,11.9,23.9s12-9.5,12-24.4-3.7-23.9-11.9-23.9-12,8.5-12,24.4Z"/>
          <path class="cls-2" d="M2862.4,339.2c0,19.9-7.4,30.9-20.4,30.9s-19.2-10.7-19.4-30.1c0-19.6,8.5-30.5,20.4-30.5s19.4,11,19.4,29.6ZM2830.6,340.1c0,15.2,4.7,23.9,11.9,23.9s12-9.5,12-24.4-3.7-23.9-11.9-23.9-12,8.5-12,24.4Z"/>
          <path class="cls-2" d="M2908.6,339.2c0,19.9-7.4,30.9-20.4,30.9s-19.2-10.7-19.4-30.1c0-19.6,8.5-30.5,20.4-30.5s19.4,11,19.4,29.6ZM2876.8,340.1c0,15.2,4.7,23.9,11.9,23.9s12-9.5,12-24.4-3.7-23.9-11.9-23.9-12,8.5-12,24.4Z"/>
          <path class="cls-2" d="M2954.8,339.2c0,19.9-7.4,30.9-20.4,30.9s-19.2-10.7-19.4-30.1c0-19.6,8.5-30.5,20.4-30.5s19.4,11,19.4,29.6ZM2923,340.1c0,15.2,4.7,23.9,11.9,23.9s12-9.5,12-24.4-3.7-23.9-11.9-23.9-12,8.5-12,24.4Z"/>
          <path class="cls-2" d="M2979.3,318h-.2l-10.2,5.5-1.5-6,12.8-6.8h6.8v58.6h-7.7v-51.2Z"/>
          <path class="cls-2" d="M3025.6,318h-.2l-10.2,5.5-1.5-6,12.8-6.8h6.8v58.6h-7.7v-51.2Z"/>
          <path class="cls-2" d="M3093.5,339.2c0,19.9-7.4,30.9-20.4,30.9s-19.2-10.7-19.4-30.1c0-19.6,8.5-30.5,20.4-30.5s19.4,11,19.4,29.6ZM3061.7,340.1c0,15.2,4.7,23.9,11.9,23.9s12-9.5,12-24.4-3.7-23.9-11.9-23.9-12,8.5-12,24.4Z"/>
          <path class="cls-2" d="M3118,318h-.2l-10.2,5.5-1.5-6,12.8-6.8h6.8v58.6h-7.7v-51.2Z"/>
          <path class="cls-2" d="M3185.9,339.2c0,19.9-7.4,30.9-20.4,30.9s-19.2-10.7-19.4-30.1c0-19.6,8.5-30.5,20.4-30.5s19.4,11,19.4,29.6ZM3154.1,340.1c0,15.2,4.7,23.9,11.9,23.9s12-9.5,12-24.4-3.7-23.9-11.9-23.9-12,8.5-12,24.4Z"/>
          <path class="cls-2" d="M3210.4,318h-.2l-10.2,5.5-1.5-6,12.8-6.8h6.8v58.6h-7.7v-51.2Z"/>
          <path class="cls-2" d="M3256.7,318h-.2l-10.2,5.5-1.5-6,12.8-6.8h6.8v58.6h-7.7v-51.2Z"/>
          <path class="cls-2" d="M3324.6,339.2c0,19.9-7.4,30.9-20.4,30.9s-19.2-10.7-19.4-30.1c0-19.6,8.5-30.5,20.4-30.5s19.4,11,19.4,29.6ZM3292.8,340.1c0,15.2,4.7,23.9,11.9,23.9s12-9.5,12-24.4-3.7-23.9-11.9-23.9-12,8.5-12,24.4Z"/>
          <path class="cls-2" d="M3370.8,339.2c0,19.9-7.4,30.9-20.4,30.9s-19.2-10.7-19.4-30.1c0-19.6,8.5-30.5,20.4-30.5s19.4,11,19.4,29.6ZM3339,340.1c0,15.2,4.7,23.9,11.9,23.9s12-9.5,12-24.4-3.7-23.9-11.9-23.9-12,8.5-12,24.4Z"/>
          <path class="cls-2" d="M3417,339.2c0,19.9-7.4,30.9-20.4,30.9s-19.2-10.7-19.4-30.1c0-19.6,8.5-30.5,20.4-30.5s19.4,11,19.4,29.6ZM3385.2,340.1c0,15.2,4.7,23.9,11.9,23.9s12-9.5,12-24.4-3.7-23.9-11.9-23.9-12,8.5-12,24.4Z"/>
        </g>
        <g>
          <path class="cls-2" d="M2561,596.2h-.2l-10.2,5.5-1.5-6,12.8-6.8h6.8v58.6h-7.7v-51.2Z"/>
          <path class="cls-2" d="M2607.2,596.2h-.2l-10.2,5.5-1.5-6,12.8-6.8h6.8v58.6h-7.7v-51.2Z"/>
          <path class="cls-2" d="M2653.4,596.2h-.2l-10.2,5.5-1.5-6,12.8-6.8h6.8v58.6h-7.7v-51.2Z"/>
          <path class="cls-2" d="M2699.7,596.2h-.2l-10.2,5.5-1.5-6,12.8-6.8h6.8v58.6h-7.7v-51.2Z"/>
          <path class="cls-2" d="M2767.6,617.5c0,19.9-7.4,30.9-20.4,30.9s-19.2-10.7-19.4-30.1c0-19.6,8.5-30.5,20.4-30.5s19.4,11,19.4,29.6ZM2735.8,618.4c0,15.2,4.7,23.9,11.9,23.9s12-9.5,12-24.4-3.7-23.9-11.9-23.9-12,8.5-12,24.4Z"/>
          <path class="cls-2" d="M2813.8,617.5c0,19.9-7.4,30.9-20.4,30.9s-19.2-10.7-19.4-30.1c0-19.6,8.5-30.5,20.4-30.5s19.4,11,19.4,29.6ZM2782,618.4c0,15.2,4.7,23.9,11.9,23.9s12-9.5,12-24.4-3.7-23.9-11.9-23.9-12,8.5-12,24.4Z"/>
          <path class="cls-2" d="M2860,617.5c0,19.9-7.4,30.9-20.4,30.9s-19.2-10.7-19.4-30.1c0-19.6,8.5-30.5,20.4-30.5s19.4,11,19.4,29.6ZM2828.2,618.4c0,15.2,4.7,23.9,11.9,23.9s12-9.5,12-24.4-3.7-23.9-11.9-23.9-12,8.5-12,24.4Z"/>
          <path class="cls-2" d="M2906.3,617.5c0,19.9-7.4,30.9-20.4,30.9s-19.2-10.7-19.4-30.1c0-19.6,8.5-30.5,20.4-30.5s19.4,11,19.4,29.6ZM2874.5,618.4c0,15.2,4.7,23.9,11.9,23.9s12-9.5,12-24.4-3.7-23.9-11.9-23.9-12,8.5-12,24.4Z"/>
          <path class="cls-2" d="M2952.5,617.5c0,19.9-7.4,30.9-20.4,30.9s-19.2-10.7-19.4-30.1c0-19.6,8.5-30.5,20.4-30.5s19.4,11,19.4,29.6ZM2920.7,618.4c0,15.2,4.7,23.9,11.9,23.9s12-9.5,12-24.4-3.7-23.9-11.9-23.9-12,8.5-12,24.4Z"/>
          <path class="cls-2" d="M2977,596.2h-.2l-10.2,5.5-1.5-6,12.8-6.8h6.8v58.6h-7.7v-51.2Z"/>
          <path class="cls-2" d="M3023.2,596.2h-.2l-10.2,5.5-1.5-6,12.8-6.8h6.8v58.6h-7.7v-51.2Z"/>
          <path class="cls-2" d="M3091.2,617.5c0,19.9-7.4,30.9-20.4,30.9s-19.2-10.7-19.4-30.1c0-19.6,8.5-30.5,20.4-30.5s19.4,11,19.4,29.6ZM3059.3,618.4c0,15.2,4.7,23.9,11.9,23.9s12-9.5,12-24.4-3.7-23.9-11.9-23.9-12,8.5-12,24.4Z"/>
          <path class="cls-2" d="M3115.7,596.2h-.2l-10.2,5.5-1.5-6,12.8-6.8h6.8v58.6h-7.7v-51.2Z"/>
          <path class="cls-2" d="M3183.6,617.5c0,19.9-7.4,30.9-20.4,30.9s-19.2-10.7-19.4-30.1c0-19.6,8.5-30.5,20.4-30.5s19.4,11,19.4,29.6ZM3151.8,618.4c0,15.2,4.7,23.9,11.9,23.9s12-9.5,12-24.4-3.7-23.9-11.9-23.9-12,8.5-12,24.4Z"/>
          <path class="cls-2" d="M3208.1,596.2h-.2l-10.2,5.5-1.5-6,12.8-6.8h6.8v58.6h-7.7v-51.2Z"/>
          <path class="cls-2" d="M3254.3,596.2h-.2l-10.2,5.5-1.5-6,12.8-6.8h6.8v58.6h-7.7v-51.2Z"/>
          <path class="cls-2" d="M3322.3,617.5c0,19.9-7.4,30.9-20.4,30.9s-19.2-10.7-19.4-30.1c0-19.6,8.5-30.5,20.4-30.5s19.4,11,19.4,29.6ZM3290.5,618.4c0,15.2,4.7,23.9,11.9,23.9s12-9.5,12-24.4-3.7-23.9-11.9-23.9-12,8.5-12,24.4Z"/>
          <path class="cls-2" d="M3368.5,617.5c0,19.9-7.4,30.9-20.4,30.9s-19.2-10.7-19.4-30.1c0-19.6,8.5-30.5,20.4-30.5s19.4,11,19.4,29.6ZM3336.7,618.4c0,15.2,4.7,23.9,11.9,23.9s12-9.5,12-24.4-3.7-23.9-11.9-23.9-12,8.5-12,24.4Z"/>
          <path class="cls-2" d="M3414.7,617.5c0,19.9-7.4,30.9-20.4,30.9s-19.2-10.7-19.4-30.1c0-19.6,8.5-30.5,20.4-30.5s19.4,11,19.4,29.6ZM3382.9,618.4c0,15.2,4.7,23.9,11.9,23.9s12-9.5,12-24.4-3.7-23.9-11.9-23.9-12,8.5-12,24.4Z"/>
        </g>
        <g>
          <path class="cls-2" d="M2565.7,503.5h-.2l-10.2,5.5-1.5-6,12.8-6.8h6.8v58.6h-7.7v-51.2Z"/>
          <path class="cls-2" d="M2611.9,503.5h-.2l-10.2,5.5-1.5-6,12.8-6.8h6.8v58.6h-7.7v-51.2Z"/>
          <path class="cls-2" d="M2658.1,503.5h-.2l-10.2,5.5-1.5-6,12.8-6.8h6.8v58.6h-7.7v-51.2Z"/>
          <path class="cls-2" d="M2704.3,503.5h-.2l-10.2,5.5-1.5-6,12.8-6.8h6.8v58.6h-7.7v-51.2Z"/>
          <path class="cls-2" d="M2772.3,524.8c0,19.9-7.4,30.9-20.4,30.9s-19.2-10.7-19.4-30.1c0-19.6,8.5-30.5,20.4-30.5s19.4,11,19.4,29.6ZM2740.5,525.7c0,15.2,4.7,23.9,11.9,23.9s12-9.5,12-24.4-3.7-23.9-11.9-23.9-12,8.5-12,24.4Z"/>
          <path class="cls-2" d="M2818.5,524.8c0,19.9-7.4,30.9-20.4,30.9s-19.2-10.7-19.4-30.1c0-19.6,8.5-30.5,20.4-30.5s19.4,11,19.4,29.6ZM2786.7,525.7c0,15.2,4.7,23.9,11.9,23.9s12-9.5,12-24.4-3.7-23.9-11.9-23.9-12,8.5-12,24.4Z"/>
          <path class="cls-2" d="M2864.7,524.8c0,19.9-7.4,30.9-20.4,30.9s-19.2-10.7-19.4-30.1c0-19.6,8.5-30.5,20.4-30.5s19.4,11,19.4,29.6ZM2832.9,525.7c0,15.2,4.7,23.9,11.9,23.9s12-9.5,12-24.4-3.7-23.9-11.9-23.9-12,8.5-12,24.4Z"/>
          <path class="cls-2" d="M2911,524.8c0,19.9-7.4,30.9-20.4,30.9s-19.2-10.7-19.4-30.1c0-19.6,8.5-30.5,20.4-30.5s19.4,11,19.4,29.6ZM2879.1,525.7c0,15.2,4.7,23.9,11.9,23.9s12-9.5,12-24.4-3.7-23.9-11.9-23.9-12,8.5-12,24.4Z"/>
          <path class="cls-2" d="M2957.2,524.8c0,19.9-7.4,30.9-20.4,30.9s-19.2-10.7-19.4-30.1c0-19.6,8.5-30.5,20.4-30.5s19.4,11,19.4,29.6ZM2925.4,525.7c0,15.2,4.7,23.9,11.9,23.9s12-9.5,12-24.4-3.7-23.9-11.9-23.9-12,8.5-12,24.4Z"/>
          <path class="cls-2" d="M2981.7,503.5h-.2l-10.2,5.5-1.5-6,12.8-6.8h6.8v58.6h-7.7v-51.2Z"/>
          <path class="cls-2" d="M3027.9,503.5h-.2l-10.2,5.5-1.5-6,12.8-6.8h6.8v58.6h-7.7v-51.2Z"/>
          <path class="cls-2" d="M3095.8,524.8c0,19.9-7.4,30.9-20.4,30.9s-19.2-10.7-19.4-30.1c0-19.6,8.5-30.5,20.4-30.5s19.4,11,19.4,29.6ZM3064,525.7c0,15.2,4.7,23.9,11.9,23.9s12-9.5,12-24.4-3.7-23.9-11.9-23.9-12,8.5-12,24.4Z"/>
          <path class="cls-2" d="M3120.3,503.5h-.2l-10.2,5.5-1.5-6,12.8-6.8h6.8v58.6h-7.7v-51.2Z"/>
          <path class="cls-2" d="M3188.3,524.8c0,19.9-7.4,30.9-20.4,30.9s-19.2-10.7-19.4-30.1c0-19.6,8.5-30.5,20.4-30.5s19.4,11,19.4,29.6ZM3156.5,525.7c0,15.2,4.7,23.9,11.9,23.9s12-9.5,12-24.4-3.7-23.9-11.9-23.9-12,8.5-12,24.4Z"/>
          <path class="cls-2" d="M3212.8,503.5h-.2l-10.2,5.5-1.5-6,12.8-6.8h6.8v58.6h-7.7v-51.2Z"/>
          <path class="cls-2" d="M3259,503.5h-.2l-10.2,5.5-1.5-6,12.8-6.8h6.8v58.6h-7.7v-51.2Z"/>
          <path class="cls-2" d="M3326.9,524.8c0,19.9-7.4,30.9-20.4,30.9s-19.2-10.7-19.4-30.1c0-19.6,8.5-30.5,20.4-30.5s19.4,11,19.4,29.6ZM3295.1,525.7c0,15.2,4.7,23.9,11.9,23.9s12-9.5,12-24.4-3.7-23.9-11.9-23.9-12,8.5-12,24.4Z"/>
          <path class="cls-2" d="M3373.2,524.8c0,19.9-7.4,30.9-20.4,30.9s-19.2-10.7-19.4-30.1c0-19.6,8.5-30.5,20.4-30.5s19.4,11,19.4,29.6ZM3341.4,525.7c0,15.2,4.7,23.9,11.9,23.9s12-9.5,12-24.4-3.7-23.9-11.9-23.9-12,8.5-12,24.4Z"/>
          <path class="cls-2" d="M3419.4,524.8c0,19.9-7.4,30.9-20.4,30.9s-19.2-10.7-19.4-30.1c0-19.6,8.5-30.5,20.4-30.5s19.4,11,19.4,29.6ZM3387.6,525.7c0,15.2,4.7,23.9,11.9,23.9s12-9.5,12-24.4-3.7-23.9-11.9-23.9-12,8.5-12,24.4Z"/>
        </g>
        <g>
          <path class="cls-2" d="M2568,410.7h-.2l-10.2,5.5-1.5-6,12.8-6.8h6.8v58.6h-7.7v-51.2Z"/>
          <path class="cls-2" d="M2614.2,410.7h-.2l-10.2,5.5-1.5-6,12.8-6.8h6.8v58.6h-7.7v-51.2Z"/>
          <path class="cls-2" d="M2660.5,410.7h-.2l-10.2,5.5-1.5-6,12.8-6.8h6.8v58.6h-7.7v-51.2Z"/>
          <path class="cls-2" d="M2706.7,410.7h-.2l-10.2,5.5-1.5-6,12.8-6.8h6.8v58.6h-7.7v-51.2Z"/>
          <path class="cls-2" d="M2774.6,432c0,19.9-7.4,30.9-20.4,30.9s-19.2-10.7-19.4-30.1c0-19.6,8.5-30.5,20.4-30.5s19.4,11,19.4,29.6ZM2742.8,432.9c0,15.2,4.7,23.9,11.9,23.9s12-9.5,12-24.4-3.7-23.9-11.9-23.9-12,8.5-12,24.4Z"/>
          <path class="cls-2" d="M2820.9,432c0,19.9-7.4,30.9-20.4,30.9s-19.2-10.7-19.4-30.1c0-19.6,8.5-30.5,20.4-30.5s19.4,11,19.4,29.6ZM2789,432.9c0,15.2,4.7,23.9,11.9,23.9s12-9.5,12-24.4-3.7-23.9-11.9-23.9-12,8.5-12,24.4Z"/>
          <path class="cls-2" d="M2867.1,432c0,19.9-7.4,30.9-20.4,30.9s-19.2-10.7-19.4-30.1c0-19.6,8.5-30.5,20.4-30.5s19.4,11,19.4,29.6ZM2835.3,432.9c0,15.2,4.7,23.9,11.9,23.9s12-9.5,12-24.4-3.7-23.9-11.9-23.9-12,8.5-12,24.4Z"/>
          <path class="cls-2" d="M2913.3,432c0,19.9-7.4,30.9-20.4,30.9s-19.2-10.7-19.4-30.1c0-19.6,8.5-30.5,20.4-30.5s19.4,11,19.4,29.6ZM2881.5,432.9c0,15.2,4.7,23.9,11.9,23.9s12-9.5,12-24.4-3.7-23.9-11.9-23.9-12,8.5-12,24.4Z"/>
          <path class="cls-2" d="M2959.5,432c0,19.9-7.4,30.9-20.4,30.9s-19.2-10.7-19.4-30.1c0-19.6,8.5-30.5,20.4-30.5s19.4,11,19.4,29.6ZM2927.7,432.9c0,15.2,4.7,23.9,11.9,23.9s12-9.5,12-24.4-3.7-23.9-11.9-23.9-12,8.5-12,24.4Z"/>
          <path class="cls-2" d="M2984,410.7h-.2l-10.2,5.5-1.5-6,12.8-6.8h6.8v58.6h-7.7v-51.2Z"/>
          <path class="cls-2" d="M3030.2,410.7h-.2l-10.2,5.5-1.5-6,12.8-6.8h6.8v58.6h-7.7v-51.2Z"/>
          <path class="cls-2" d="M3098.2,432c0,19.9-7.4,30.9-20.4,30.9s-19.2-10.7-19.4-30.1c0-19.6,8.5-30.5,20.4-30.5s19.4,11,19.4,29.6ZM3066.4,432.9c0,15.2,4.7,23.9,11.9,23.9s12-9.5,12-24.4-3.7-23.9-11.9-23.9-12,8.5-12,24.4Z"/>
          <path class="cls-2" d="M3122.7,410.7h-.2l-10.2,5.5-1.5-6,12.8-6.8h6.8v58.6h-7.7v-51.2Z"/>
          <path class="cls-2" d="M3190.6,432c0,19.9-7.4,30.9-20.4,30.9s-19.2-10.7-19.4-30.1c0-19.6,8.5-30.5,20.4-30.5s19.4,11,19.4,29.6ZM3158.8,432.9c0,15.2,4.7,23.9,11.9,23.9s12-9.5,12-24.4-3.7-23.9-11.9-23.9-12,8.5-12,24.4Z"/>
          <path class="cls-2" d="M3215.1,410.7h-.2l-10.2,5.5-1.5-6,12.8-6.8h6.8v58.6h-7.7v-51.2Z"/>
          <path class="cls-2" d="M3261.4,410.7h-.2l-10.2,5.5-1.5-6,12.8-6.8h6.8v58.6h-7.7v-51.2Z"/>
          <path class="cls-2" d="M3329.3,432c0,19.9-7.4,30.9-20.4,30.9s-19.2-10.7-19.4-30.1c0-19.6,8.5-30.5,20.4-30.5s19.4,11,19.4,29.6ZM3297.5,432.9c0,15.2,4.7,23.9,11.9,23.9s12-9.5,12-24.4-3.7-23.9-11.9-23.9-12,8.5-12,24.4Z"/>
          <path class="cls-2" d="M3375.5,432c0,19.9-7.4,30.9-20.4,30.9s-19.2-10.7-19.4-30.1c0-19.6,8.5-30.5,20.4-30.5s19.4,11,19.4,29.6ZM3343.7,432.9c0,15.2,4.7,23.9,11.9,23.9s12-9.5,12-24.4-3.7-23.9-11.9-23.9-12,8.5-12,24.4Z"/>
          <path class="cls-2" d="M3421.7,432c0,19.9-7.4,30.9-20.4,30.9s-19.2-10.7-19.4-30.1c0-19.6,8.5-30.5,20.4-30.5s19.4,11,19.4,29.6ZM3389.9,432.9c0,15.2,4.7,23.9,11.9,23.9s12-9.5,12-24.4-3.7-23.9-11.9-23.9-12,8.5-12,24.4Z"/>
        </g>
      </g>
      <polygon class="cls-2" points="2382.5 540 1931.3 342.9 1931.3 737.1 2382.5 540"/>
    </g>
  </g>
</svg>