<?xml version="1.0" encoding="UTF-8"?>
<svg xmlns="http://www.w3.org/2000/svg" version="1.1" viewBox="0 0 1920 1080">
  <defs>
    <style>
      .cls-1 {
        fill: #2a284b;
      }
    </style>
  </defs>
  <!-- Generator: Adobe Illustrator 28.7.5, SVG Export Plug-In . SVG Version: 1.2.0 Build 176)  -->
  <g>
    <g id="Ebene_1">
      <g id="Ebene_1-2" data-name="Ebene_1">
        <g>
          <g>
            <path class="cls-1" d="M1015,602.7l-123.8,51-29.4-202.9c-2.4-16.6,7.8-31.6,22.5-33.2l101.9-11,28.9,196.1h-.1Z"/>
            <polygon class="cls-1" points="902.9 833.8 795.9 824.3 907.4 583.9 988.5 624.3 902.9 833.8"/>
            <polygon class="cls-1" points="1165.6 715.6 1110.5 792.1 927.7 627.1 1002.3 552.4 1165.6 715.6"/>
            <rect class="cls-1" x="874.1" y="347" width="73.3" height="101.6"/>
            <path class="cls-1" d="M1149.3,419.5l-166.9,50.3v-63.3l163.8,1.8c6.5-.5,8.9,8.4,3,11.3h0Z"/>
            <path class="cls-1" d="M945.6,335.4c-15.6,9.8,10.4-27.2,2.9-51.1-9.1-29.2-47.6-44.6-71.1-35.5-42.7,16.4-61.3,53.2-48,87.6,13.2,34.4,87,55.7,129.7,39.3,42.7-16.4,27.6-66.2-13.5-40.3h0ZM925.3,305.9c-4.4,10.6-14.5,16.5-22.6,13.1-8-3.4-11-14.7-6.6-25.2,4.4-10.6,14.5-16.5,22.6-13.1,8,3.4,11,14.7,6.6,25.2Z"/>
            <path class="cls-1" d="M1172.4,520.1l-209.9-8c-3.4-.1-5.9-3.3-5.3-6.7l12.8-65.2c.7-3.4,4.2-5.4,7.4-4.2l197.3,71.8c6.7,2.4,4.7,12.4-2.4,12.1v.2Z"/>
          </g>
          <g>
            <path class="cls-1" d="M420.8,602.7l-123.8,51-29.4-202.9c-2.4-16.6,7.8-31.6,22.5-33.2l101.9-11,28.9,196.1h-.1Z"/>
            <polygon class="cls-1" points="308.6 833.8 201.7 824.3 313.2 583.9 394.2 624.3 308.6 833.8"/>
            <polygon class="cls-1" points="571.3 715.6 516.3 792.1 333.5 627.1 408.1 552.4 571.3 715.6"/>
            <rect class="cls-1" x="279.9" y="347" width="73.3" height="101.6"/>
            <path class="cls-1" d="M555,419.5l-166.9,50.3v-63.3l163.8,1.8c6.5-.5,8.9,8.4,3,11.3h0Z"/>
            <path class="cls-1" d="M351.4,335.4c-15.6,9.8,10.4-27.2,2.9-51.1-9.1-29.2-47.6-44.6-71.1-35.5-42.7,16.4-61.3,53.2-48,87.6,13.2,34.4,87,55.7,129.7,39.3,42.7-16.4,27.6-66.2-13.5-40.3h0ZM331.1,305.9c-4.4,10.6-14.5,16.5-22.6,13.1-8-3.4-11-14.7-6.6-25.2,4.4-10.6,14.5-16.5,22.6-13.1,8,3.4,11,14.7,6.6,25.2Z"/>
            <path class="cls-1" d="M578.2,520.1l-209.9-8c-3.4-.1-5.9-3.3-5.3-6.7l12.8-65.2c.7-3.4,4.2-5.4,7.4-4.2l197.3,71.8c6.7,2.4,4.7,12.4-2.4,12.1v.2Z"/>
          </g>
          <g>
            <path class="cls-1" d="M1609.3,602.7l-123.8,51-29.4-202.9c-2.4-16.6,7.8-31.6,22.5-33.2l101.9-11,28.9,196.1h0Z"/>
            <polygon class="cls-1" points="1497.1 833.8 1390.2 824.3 1501.7 583.9 1582.7 624.3 1497.1 833.8"/>
            <polygon class="cls-1" points="1759.8 715.6 1704.7 792.1 1521.9 627.1 1596.6 552.4 1759.8 715.6"/>
            <rect class="cls-1" x="1468.3" y="347" width="73.3" height="101.6"/>
            <path class="cls-1" d="M1743.5,419.5l-166.9,50.3v-63.3l163.8,1.8c6.5-.5,8.9,8.4,3,11.3h0Z"/>
            <path class="cls-1" d="M1539.9,335.4c-15.6,9.8,10.4-27.2,2.9-51.1-9.1-29.2-47.6-44.6-71.1-35.5-42.7,16.4-61.3,53.2-48,87.6,13.2,34.4,87,55.7,129.7,39.3,42.7-16.4,27.6-66.2-13.5-40.3ZM1519.6,305.9c-4.4,10.6-14.5,16.5-22.6,13.1-8-3.4-11-14.7-6.6-25.2,4.4-10.6,14.5-16.5,22.6-13.1,8,3.4,11,14.7,6.6,25.2Z"/>
            <path class="cls-1" d="M1766.7,520.1l-209.9-8c-3.4-.1-5.9-3.3-5.3-6.7l12.8-65.2c.7-3.4,4.2-5.4,7.4-4.2l197.3,71.8c6.7,2.4,4.7,12.4-2.4,12.1v.2Z"/>
          </g>
        </g>
      </g>
      <path class="cls-1" d="M1676.4,223.1c4.3-10,14.4-14.3,23.9-10.2,10,4.3,13.3,14.3,9,24.3s-13.8,14.5-23.9,10.2c-9.8-4.2-13.2-14.6-9-24.3ZM1700.5,186.2l53.5-135.4,26.8,11.5-61.3,132.1-18.9-8.1Z"/>
      <path class="cls-1" d="M1418.4,225.2c-11.2-9.2-14.6-23.7-7.5-32.3s30.7-.4,30.5,14.1c-.2,19.2,17.3,10.7,10.2,19.3s-21.9,8.1-33.2-1.2Z"/>
      <path class="cls-1" d="M968.3,612.9c-30.4,0-54.1-64-23.1-88.9,40.9-32.9-7.3-55.1,23.1-55.1"/>
      <path class="cls-1" d="M1520.9,208.9c2.9-14.3-3.7-27.6-14.6-29.8s-24,19.1-14.7,30.2c12.3,14.8-6.6,19.3,4.3,21.4,10.9,2.2,22.1-7.6,25-21.9Z"/>
    </g>
  </g>
</svg>